<svg xmlns="http://www.w3.org/2000/svg" viewBox="0 0 128 128" role="img" aria-label="TREV">
  <rect width="128" height="128" rx="28" fill="#3b358f"/>
  <g transform="translate(-6.5 -8) scale(1.12)" fill="#ecc98a">
    <g fill="none" stroke="#ecc98a" stroke-width="8.5" stroke-linecap="round">
      <path d="M68 80 L69 101"/>
      <path d="M86.5 80 L85.5 101"/>
      <path d="M58 80 L57 103.5"/>
      <path d="M97 78 L98.5 103.5"/>
    </g>
    <path d="M49 70 C48 61 53 56 60 54 C64 43 70 35 77.5 35 C85 35 91 43 95 52 C102 55 106 61 106 69 C106 79 99 85 91 85 L62 85 C54 85 49 79 49 70 Z"/>
    <path d="M42.5 40 C43.5 33 39 26.5 32.5 26.5 C26.5 26.5 19.5 29.5 14 35 C10.5 39 11.5 45.5 16.5 46.5 C21 47.5 25 47 27.5 46.5 C29 46.5 29 48 29 50 C29 67 41 78 55 78 L56 58 C46 61 42 56 42 46 Z"/>
    <path d="M34 29.5 C35 23 38.5 19.5 43.5 18.5 C45 24 43 29 39 32 Z"/>
  </g>
</svg>
